<svg id="Layer_1" data-name="Layer 1" xmlns="http://www.w3.org/2000/svg" xmlns:xlink="http://www.w3.org/1999/xlink" width="729" height="729" viewBox="0 0 729 729">
  <defs>
    <style>
      .cls-1 {
        fill: none;
      }

      .cls-2 {
        clip-path: url(#clip-path);
      }

      .cls-3 {
        fill: #fff;
      }
    </style>
    <clipPath id="clip-path">
      <rect class="cls-1" width="729" height="729"/>
    </clipPath>
  </defs>
  <g class="cls-2">
    <g>
      <rect class="cls-3" x="-456.11" y="57.15" width="1033.72" height="7.2" transform="translate(-25.16 60.75) rotate(-45)"/>
      <rect class="cls-3" x="-395.36" y="117.9" width="1033.72" height="7.2" transform="translate(-50.33 121.5) rotate(-45)"/>
      <rect class="cls-3" x="-334.61" y="178.65" width="1033.72" height="7.2" transform="translate(-75.49 182.25) rotate(-45)"/>
      <rect class="cls-3" x="-273.86" y="239.4" width="1033.72" height="7.2" transform="translate(-100.65 243) rotate(-45)"/>
      <rect class="cls-3" x="-213.11" y="300.15" width="1033.72" height="7.2" transform="translate(-125.82 303.75) rotate(-45)"/>
      <rect class="cls-3" x="-152.36" y="360.9" width="1033.72" height="7.2" transform="translate(-150.98 364.5) rotate(-45)"/>
      <rect class="cls-3" x="-91.61" y="421.65" width="1033.72" height="7.2" transform="translate(-176.14 425.25) rotate(-45)"/>
      <rect class="cls-3" x="-30.86" y="482.4" width="1033.72" height="7.2" transform="translate(-201.31 486) rotate(-45)"/>
      <rect class="cls-3" x="29.89" y="543.15" width="1033.72" height="7.2" transform="translate(-226.47 546.75) rotate(-45)"/>
      <rect class="cls-3" x="90.64" y="603.9" width="1033.72" height="7.2" transform="translate(-251.63 607.5) rotate(-45)"/>
      <rect class="cls-3" x="151.39" y="664.65" width="1033.72" height="7.2" transform="translate(-276.8 668.25) rotate(-45)"/>
    </g>
  </g>
</svg>
