<?xml version="1.0" encoding="utf-8"?>
<!-- Generator: Adobe Illustrator 25.0.0, SVG Export Plug-In . SVG Version: 6.00 Build 0)  -->
<svg version="1.1" id="Layer_1" xmlns="http://www.w3.org/2000/svg" xmlns:xlink="http://www.w3.org/1999/xlink" x="0px" y="0px"
	 viewBox="0 0 352.7 72.7" style="enable-background:new 0 0 352.7 72.7;" xml:space="preserve">
<style type="text/css">
	.st0{fill:#1F2937;}
</style>
<g>
	<path class="st0" d="M9.8,56.2c-0.9-0.8-1.4-2-1.3-3.2c0-1.5,0.7-2.8,1.8-3.8c1.4-1.3,3-2.3,4.8-3.2c2-1,4.6-2.1,7.8-3.4
		c-3.1,0.1-6.1-0.7-8.8-2.2c-2.2-1.3-3.5-3.8-3.3-6.3c0.1-2.5,0.9-5,2.5-7c1.9-2.4,4.4-4.4,7.2-5.6c3.4-1.5,7.1-2.3,10.8-2.2
		c1.1,0,2.2,0.1,3.3,0.2c1-2.1,2.1-4.2,3.3-6.2c0.9-1.5,2-2.8,3.4-3.9c1.3-1.1,3-1.7,4.7-1.7c1.5-0.1,2.9,0.4,4,1.3
		c1,1,1.6,2.4,1.5,3.8c0,1.3-0.3,2.6-0.9,3.7c-0.6,1.2-1.5,2.2-2.5,2.9c-1,0.7-2.2,1.1-3.5,1.1c-1.2,0.1-2.4-0.4-3.3-1.2
		c-0.8-0.8-1.2-1.9-1.2-3c0-1.1,0.3-2.1,0.9-3.1c0.7-1.2,1.6-2.2,2.6-3c-0.2-0.1-0.4-0.2-0.6-0.2c-0.5,0-0.9,0.2-1.2,0.6
		c-1.1,1.1-2,2.3-2.8,3.7c-1.1,1.7-2,3.5-2.8,5.4c2.2,0.3,4.2,1.3,5.9,2.7c1.4,1.4,2.2,3.3,2.1,5.3c0,2.4-0.8,4.7-2.2,6.6
		c-1.6,2.3-3.7,4.1-6.2,5.4c-2.9,1.5-6.1,2.5-9.4,2.7c-4,1.4-6.1,2.7-6.1,3.9c0,0.4,0.2,0.8,0.6,1c0.6,0.4,1.3,0.7,2,0.9l6.7,2.5
		c5.6,2.1,8.4,5,8.4,8.7c0,2.9-1.4,5.6-3.7,7.3c-2.7,2.1-5.7,3.5-9,4.3c-3.4,0.9-6.8,1.4-10.3,1.4c-2.6,0-5.3-0.2-7.9-0.7
		c-1.8-0.3-3.5-1-5.1-2C0.7,69.3,0,68.1,0,66.8c-0.1-1.7,0.9-3.2,2.4-3.8c2.3-1,4.7-1.7,7.1-2.2c2.2-0.4,4.4-1,6.5-1.7l-2.9-0.9
		C11.9,57.8,10.7,57.1,9.8,56.2z M14.1,64.9c-0.6,1.4-0.9,2.9-0.9,4.4c-0.1,0.6,0.2,1.2,0.6,1.6c0.5,0.4,1.2,0.5,1.8,0.5
		c1.8,0,3.7-0.3,5.4-0.8c1.7-0.5,3.3-1.3,4.7-2.4c1.1-0.8,1.8-2.1,1.9-3.5c0-0.6-0.2-1.1-0.6-1.6c-0.4-0.4-0.8-0.7-1.3-0.9
		c-0.5-0.2-1.3-0.5-2.4-0.8l-6-1.9C15.9,61.1,14.9,63,14.1,64.9z M28.1,39.1c1.1-1.9,1.9-3.9,2.4-6.1c0.6-2.5,0.9-5.1,0.9-7.7
		c0.1-1.2-0.1-2.3-0.3-3.4c-0.2-0.7-0.8-1.2-1.5-1.1c-1.1,0-2.1,0.8-3.1,2.3c-1.1,1.9-1.9,3.9-2.4,6.1C23.3,31.7,23,34.4,23,37
		c-0.1,1.2,0.1,2.3,0.4,3.4c0.2,0.6,0.8,1,1.4,0.9C26,41.4,27.1,40.6,28.1,39.1L28.1,39.1z"/>
	<path class="st0" d="M58.4,19.4c2.4,0,4.2,0.6,5.3,2c1.1,1.5,1.7,3.3,1.6,5.1c0,0.3,0,0.7-0.1,1.4c0.8-1.8,1.8-3.5,3-5
		c0.9-1.1,2.1-2,3.4-2.6c1.3-0.6,2.8-0.8,4.2-0.8c1.3,0,2.7,0.3,3.8,0.9c1.1,0.6,1.9,1.5,2.5,2.6c0.6,1.1,0.9,2.4,0.9,3.6
		c0,1.6-0.4,3.2-1.1,4.6c-0.7,1.4-1.7,2.5-3,3.4c-1.3,0.8-2.8,1.3-4.3,1.3c-1.5,0.1-3-0.4-4.1-1.4c-1-1.1-1.5-2.6-1.4-4.1
		c0-1.4,0.4-2.8,1.1-4.1c0.7-1.3,1.8-2.4,3-3.3c1.2-0.9,2.6-1.5,4-1.8c-0.3-0.1-0.7-0.2-1-0.2c-1.5,0-2.9,0.3-4.3,1
		c-1.3,0.7-2.7,2.2-4.2,4.7c-2.1,3.6-3.8,7.5-5,11.5l-5.4,20.8H44.1l9-32.1c0.2-0.6,0.3-1.3,0.3-1.9c0-0.8-0.3-1.2-1-1.2
		c-0.8,0-1.6,0.4-2.1,1c-0.9,1.1-1.6,2.3-2,3.6l-1.7,4.5h-1.3l2.1-5.8C49.2,21.9,52.9,19.4,58.4,19.4z"/>
	<path class="st0" d="M83.4,34.5c1.9-4.3,4.9-8,8.7-10.8c4.1-3,9.1-4.5,14.2-4.4c4.3,0,7.5,1.1,9.8,3.2c2.3,2.2,3.4,5.3,3.4,9.4
		c-0.1,4.4-1,8.7-2.9,12.7c-1.9,4.3-4.9,8-8.7,10.8c-4.1,3-9.1,4.5-14.1,4.3c-4.3,0-7.6-1.1-9.8-3.2c-2.2-2.2-3.4-5.3-3.4-9.3
		C80.6,42.9,81.6,38.5,83.4,34.5z M100.7,26.4c-2.3,4.3-4.2,8.8-5.5,13.4c-1.5,4.7-2.3,9.5-2.3,14.4c-0.1,1.1,0.1,2.2,0.3,3.2
		c0.2,0.6,0.6,0.9,1.1,0.9c1.3,0,3-1.8,5.1-5.3c2.3-4.1,4.2-8.5,5.5-13.1c1.5-4.8,2.3-9.8,2.3-14.8c0.1-1.2-0.1-2.3-0.3-3.4
		c-0.2-0.6-0.5-0.9-0.9-0.9C104.5,20.8,102.8,22.7,100.7,26.4z"/>
	<path class="st0" d="M164.2,46.4l-2.1,5.8c-1.4,4.7-5.7,7.8-10.6,7.6c-3.3,0-5.5-1-6.6-2.9c-0.6-1.1-0.9-2.3-0.9-3.6
		c0-1.3,0.2-2.6,0.6-3.9l1.7-6.3c-1.4,3.6-3.2,7.1-5.4,10.4c-1.3,2.1-3.2,3.8-5.3,5c-1.9,0.9-4,1.4-6.2,1.4
		c-1.9,0.1-3.7-0.4-5.2-1.6c-1.2-1.2-1.9-2.9-1.8-4.6c0.1-1.7,0.4-3.4,0.9-5l7.2-22c0.2-0.6,0.3-1.2,0.4-1.8c0-0.9-0.4-1.3-1.3-1.3
		c-1.5,0-2.8,1.6-3.9,4.7l-1.6,4.2h-1.4l1.8-5.4c1.8-5.1,5.3-7.6,10.6-7.6c2.1-0.1,4.1,0.5,5.8,1.7c1.4,1.3,2.2,3.3,2,5.2
		c0,2-0.4,3.9-1,5.8l-6.4,19.1c-0.3,0.9-0.5,1.9-0.6,2.9c0,0.8,0.2,1.1,0.8,1.1c1.2,0,2.7-1.5,4.6-4.5c2.2-3.8,4.1-7.7,5.7-11.7
		c2-4.9,3.7-9.8,5.2-14.9l1-3.8c4.5,0,9-0.3,13.4-1l-9.3,33.2c-0.3,0.7-0.4,1.4-0.5,2.1c0,0.7,0.4,1,1.1,1c0.8,0,1.6-0.4,2.1-1
		c0.9-1.1,1.5-2.3,1.9-3.7l1.7-4.5L164.2,46.4z"/>
	<path class="st0" d="M209.7,46.8l-1.8,5.4c-1.8,5.1-5.3,7.6-10.6,7.6c-3.2,0-5.4-0.9-6.7-2.7c-0.9-1.2-1.3-2.7-1.2-4.2
		c0.1-2,0.5-4,1.1-5.9l6.4-19.1c0.4-0.9,0.6-1.9,0.6-2.9c0-0.7-0.3-1.1-0.8-1.1c-1.3,0-2.9,1.7-5,5.2c-2.4,4.3-4.5,8.7-6.2,13.3
		c-2.1,5.3-3.8,10.7-5.3,16.2v-0.1l-0.1,0.4h-13l9-32.1c0.2-0.7,0.4-1.4,0.4-2.1c0-0.6-0.4-1-1.1-1c-0.8,0-1.6,0.4-2.1,1
		c-0.9,1.1-1.5,2.3-1.9,3.6l-1.7,4.5h-1.4l2.1-5.8c0.7-2.3,2-4.3,3.9-5.8c1.8-1.3,4-1.9,6.3-1.9c2.8,0,4.8,0.6,6,2
		c1.2,1.4,1.9,3.2,1.8,5c0,1.1-0.2,2.3-0.5,3.4l-2,7.7c1.5-3.9,3.3-7.6,5.5-11.1c1.3-2.2,3.2-4,5.4-5.4c1.9-1,4-1.5,6.2-1.5
		c4.8,0,7.3,2,7.3,6.1c-0.1,1.7-0.4,3.4-1,5.1l-7.3,22c-0.2,0.6-0.3,1.2-0.4,1.8c0,0.9,0.4,1.3,1.2,1.3c1.5,0,2.8-1.6,3.9-4.7
		l1.6-4.2L209.7,46.8z"/>
	<path class="st0" d="M254.5,46.8l-1.9,5.4c-1.7,5.1-5.3,7.6-10.6,7.6c-3.1,0-5.3-0.9-6.6-2.8c-0.8-1.2-1.2-2.7-1.1-4.2
		c0-1.1,0.1-2.2,0.4-3.3c-1.2,2.9-3,5.6-5.3,7.8c-2,1.7-4.6,2.6-7.3,2.5c-1.7,0-3.3-0.4-4.8-1.1c-1.5-0.8-2.7-2.1-3.4-3.6
		c-0.9-1.9-1.4-4-1.3-6.1c0.1-4.4,1.1-8.8,3-12.9c1.9-4.6,4.9-8.7,8.7-11.9c3.7-3.2,8.4-5,13.3-4.9c2.4,0,3.9,0.6,4.5,1.8l3.1-11.7
		c0.2-0.7,0.3-1.4,0.4-2.1c0.1-0.9-0.4-1.7-1.1-2.2c-1.2-0.5-2.5-0.8-3.9-0.7l0.5-1.6c6.8,0,13.5-1,20-3l-14.4,52.5
		c-0.2,0.6-0.3,1.1-0.4,1.7c0,0.9,0.4,1.4,1.3,1.4c1.4,0,2.7-1.6,3.9-4.7l1.6-4.2L254.5,46.8z M241,21.5c-0.4-0.3-1-0.5-1.6-0.4
		c-1.5,0-3.3,1.5-5.4,4.4c-2.3,3.5-4.1,7.3-5.3,11.3c-1.5,4.6-2.2,9.4-2.2,14.2c-0.1,1.1,0.1,2.2,0.4,3.2c0.2,0.6,0.8,1,1.4,1
		c0.7,0,1.5-0.5,2.5-1.6c1.3-1.5,2.4-3.3,3.2-5.1c1.3-2.9,2.5-5.9,3.4-8.9l2.2-8.5V31l0,0l2.1-8.1C241.6,22.3,241.4,21.9,241,21.5z"
		/>
	<path class="st0" d="M281,57c-3.4,2-7.2,2.9-11.1,2.9c-2.2,0-4.4-0.4-6.5-1.2c-1.8-0.7-3.4-2-4.6-3.6c-1.2-1.7-1.8-3.6-1.7-5.7
		c0-5,1.3-9.9,3.7-14.2c2.4-4.6,5.9-8.5,10.2-11.4c4.2-2.9,9.2-4.5,14.3-4.4c2.3-0.1,4.6,0.4,6.6,1.6c1.6,1.1,2.6,2.9,2.5,4.9
		c0,2.9-1.3,5.7-3.4,7.8c-2.5,2.5-5.4,4.6-8.7,6c-3.6,1.7-7.4,3-11.3,3.9c-0.2,1.3-0.2,2.5-0.2,3.8c0,2.7,0.5,4.6,1.5,5.6
		c1.3,1.1,2.9,1.7,4.6,1.5c1.7-0.1,3.3-0.5,4.8-1.3c2.1-0.9,4-2.3,5.6-3.9l1.1,0.6C286.6,52.8,284,55.2,281,57z M279.1,24
		c-1.9,2.5-3.5,5.3-4.7,8.2c-1.4,3.2-2.4,6.6-3,10c2.5-1.4,4.8-3,6.8-5c4.5-4.4,6.7-9.3,6.7-14.5c0-1.2-0.4-1.9-1.2-1.9
		C282.4,20.8,280.8,21.8,279.1,24L279.1,24z"/>
	<path class="st0" d="M335.8,46.8l-1.8,5.4c-1.7,5.1-5.3,7.6-10.6,7.6c-3.1,0-5.3-0.9-6.6-2.8c-0.8-1.2-1.1-2.7-1.1-4.2
		c0-1.1,0.1-2.2,0.4-3.3c-1.2,2.9-3,5.6-5.2,7.8c-2,1.7-4.6,2.6-7.3,2.5c-1.7,0-3.3-0.4-4.8-1.1c-1.5-0.8-2.7-2.1-3.4-3.6
		c-0.9-1.9-1.4-4-1.3-6.1c0.1-4.4,1.1-8.8,3-12.9c2-4.6,4.9-8.7,8.7-11.9c3.7-3.2,8.4-4.9,13.3-4.9c2.4,0,3.9,0.6,4.5,1.8l3.1-11.7
		c0.2-0.7,0.3-1.4,0.4-2.1c0.1-0.9-0.4-1.7-1.1-2.2c-1.2-0.5-2.5-0.7-3.9-0.7l0.5-1.6c6.8,0,13.5-1,20-3L328,52.5
		c-0.2,0.6-0.3,1.1-0.4,1.7c0,0.9,0.4,1.4,1.3,1.4c1.5,0,2.8-1.6,3.9-4.7l1.5-4.2L335.8,46.8z M322.3,21.5c-0.4-0.3-1-0.5-1.5-0.4
		c-1.5,0-3.3,1.5-5.4,4.4c-2.3,3.5-4.1,7.3-5.3,11.3c-1.5,4.6-2.2,9.4-2.2,14.2c-0.1,1.1,0.1,2.2,0.4,3.2c0.2,0.6,0.8,1,1.4,1
		c0.7,0,1.5-0.5,2.5-1.6c1.3-1.6,2.4-3.3,3.2-5.1c1.3-2.9,2.5-5.9,3.4-8.9l2.2-8.5V31l0,0l2.1-8.1C322.9,22.3,322.6,21.9,322.3,21.5
		z"/>
	<path class="st0" d="M339.6,50.9c0.7-1.2,1.8-2.2,3-2.8c1.3-0.7,2.8-1,4.2-1c1.6-0.1,3.1,0.3,4.4,1.3c1,1,1.6,2.4,1.5,3.8
		c0,1.3-0.4,2.6-1.1,3.7c-0.8,1.2-1.8,2.2-3,2.9c-1.3,0.7-2.7,1.1-4.2,1.1c-1.6,0.1-3.1-0.3-4.4-1.3c-1-0.9-1.5-2.2-1.5-3.6
		C338.5,53.6,338.9,52.1,339.6,50.9z"/>
</g>
</svg>
